# xmcd CD database file
#
# Track frame offsets:
#	150
#	21456
#	39652
#	61236
#	87726
#	102737
#	123496
#	138857
#	158591
#	177358
#	198062
#	216441
#	238266
#	260067
#	276608
#	290345
#	308038
#
# Disc length: 4382 seconds
#
# Revision: 0
# Processed by: cddbd v1.5PL3 Copyright (c) Steve Scherf et al.
# Submitted via: CDex 1.40Release
#
DISCID=0c111c11
DTITLE=Elton John - Greatest Hits 1970-2002 CD 2
DYEAR=1900
DGENRE=Blues
TTITLE0=I guest thats way they call blues
TTITLE1=Can you feel the love tonight
TTITLE2=Beliebe
TTITLE3=The one
TTITLE4=The last song
TTITLE5=I want love
TTITLE6=Passengers
TTITLE7=Healing hands
TTITLE8=Sad songs
TTITLE9=I dont wanna go on with you like
TTITLE10=Who wears these shoes
TTITLE11=Club at the end of the street
TTITLE12=Made in England
TTITLE13=Town of plenty
TTITLE14=Im still standing
TTITLE15=Cocodrile rock
TTITLE16=Don't go breaking my heart
EXTD=ID3G: 0
EXTT0=
EXTT1=
EXTT2=
EXTT3=
EXTT4=
EXTT5=
EXTT6=
EXTT7=
EXTT8=
EXTT9=
EXTT10=
EXTT11=
EXTT12=
EXTT13=
EXTT14=
EXTT15=
EXTT16=
PLAYORDER=
